PathFileType	4	(X/Y/Z)	c:/Users/goper/Files/vsCode/490R/osim_files/C11/C11_Slow_02.trc
DataRate	CameraRate	NumFrames	NumMarkers	Units                	OrigDataRate	OrigDataStartFrame	OrigNumFrames
120.00	120.00	5	36	mm	120.0	659	1316
                Frame#	Time	LPSIS			LASIS			LTH1			LTH2			LTH3			LTH4			LLFE			LMFE			LSH1			LSH2			LSH3			LSH4			LLMAL			LMMAL			LCAL			LMTP5			LTOE			LMTP1			RPSIS			RASIS			RTH1			RTH2			RTH3			RTH4			RLFE			RMFE			RSH1			RSH2			RSH3			RSH4			RLMAL			RMMAL			RCAL			RMTP1			RTOE			RMTP5		
		X1	Y1	Z1	X2	Y2	Z2	X3	Y3	Z3	X4	Y4	Z4	X5	Y5	Z5	X6	Y6	Z6	X7	Y7	Z7	X8	Y8	Z8	X9	Y9	Z9	X10	Y10	Z10	X11	Y11	Z11	X12	Y12	Z12	X13	Y13	Z13	X14	Y14	Z14	X15	Y15	Z15	X16	Y16	Z16	X17	Y17	Z17	X18	Y18	Z18	X19	Y19	Z19	X20	Y20	Z20	X21	Y21	Z21	X22	Y22	Z22	X23	Y23	Z23	X24	Y24	Z24	X25	Y25	Z25	X26	Y26	Z26	X27	Y27	Z27	X28	Y28	Z28	X29	Y29	Z29	X30	Y30	Z30	X31	Y31	Z31	X32	Y32	Z32	X33	Y33	Z33	X34	Y34	Z34	X35	Y35	Z35	X36	Y36	Z36

659	5.48333	216.82816	994.19440	387.87927	41.02316	1001.86285	449.13162	1.18076	615.39075	507.88132	-21.25851	575.62573	510.04514	-50.78001	640.82037	525.39215	-67.25684	597.43677	519.44769	-70.46954	528.41229	515.10193	-93.07092	529.46771	405.34927	-36.04433	424.11801	532.86029	-41.98311	379.63702	535.57098	-97.50104	427.78433	538.60382	-96.62965	383.58917	539.46851	-100.50395	109.63689	505.82413	-133.58348	125.44297	414.09811	-54.65522	61.76415	447.88309	-216.99670	73.71296	543.98541	-287.31647	106.52258	481.42255	-256.45459	78.81231	435.54776	213.73904	1011.60889	303.77747	49.21818	991.59589	219.96524	152.37468	634.77618	191.18292	151.36162	591.40070	199.20380	90.77586	630.78949	205.35147	99.43418	588.77771	209.86009	144.66313	504.74820	220.06741	174.21376	495.28857	331.49548	224.48190	401.60513	206.47536	226.22902	356.04318	212.00185	162.64412	392.40085	216.40842	173.00899	345.84671	219.50069	248.11526	97.05089	278.50876	221.75179	108.71954	374.19696	310.40948	62.74997	333.21759	94.37770	51.56093	356.19467	90.49306	64.75935	306.87112	130.81358	42.69028	244.86061
660	5.49167	208.45110	992.83856	388.52597	33.19935	1000.68811	449.58014	-3.55795	612.53040	509.25284	-25.84733	572.67761	511.60831	-55.42233	637.61523	526.30334	-71.88813	594.04907	520.86121	-76.00718	525.42334	516.95520	-98.31239	526.23663	407.03842	-46.11884	419.08484	533.93127	-54.17920	374.95264	536.41425	-107.23220	425.56561	540.05035	-108.24831	381.11917	540.79462	-127.57347	107.94085	505.51123	-159.39420	125.84809	414.87158	-82.83271	58.84484	448.91092	-245.21530	78.14195	544.76978	-314.06128	114.57198	482.19476	-284.46173	85.31850	436.30399	205.59668	1010.33716	304.50546	41.11766	990.56818	220.58093	147.99098	634.70819	191.08458	147.38467	591.35681	199.07674	86.30314	630.00977	205.61459	95.53180	588.13934	209.96983	142.20982	504.36566	219.81764	171.82851	495.22382	331.22690	223.00938	401.71951	206.34698	224.93111	356.23203	211.84534	160.88733	391.93286	216.20908	171.81223	345.73224	219.13396	248.05537	97.05666	278.51382	221.68880	108.80416	374.08554	310.43210	62.89327	333.18842	94.34406	51.58558	356.07938	90.33786	64.68012	306.66031	130.79575	42.64609	244.76469
661	5.50000	199.91327	991.29126	389.29059	24.04938	999.17499	450.23114	-8.84844	609.58197	510.97430	-30.69858	569.74402	513.37415	-60.64599	634.41412	527.60834	-76.92228	590.68115	522.42206	-81.76083	522.21460	519.13916	-103.27689	522.76385	408.75229	-56.06423	414.18695	535.15344	-67.54915	369.23608	535.92639	-116.71616	423.56577	541.81860	-120.20680	378.51736	541.61847	-153.15660	107.20572	505.76376	-184.39867	127.15356	415.29190	-111.88885	55.80243	448.90079	-272.00113	83.01183	545.32745	-339.25269	123.13031	483.00424	-311.23859	92.66267	436.97952	197.28372	1008.88672	305.34360	32.75487	989.48029	221.27028	143.40631	634.54974	190.96352	143.40825	591.21741	198.94016	81.44891	629.21375	206.22112	91.79613	587.36975	210.13181	139.24541	503.89459	219.61681	169.38948	495.19531	331.02921	221.49161	401.85828	206.20189	223.52383	356.32678	211.78055	159.19106	391.66025	215.97377	170.26385	345.43268	218.95648	248.05507	97.12523	278.53915	221.58395	108.79787	374.01965	310.43039	62.95386	333.20889	94.29966	51.52551	356.02725	90.29826	64.54037	306.58499	130.71591	42.56678	244.66234
662	5.50833	191.09868	989.47241	390.09027	15.62193	997.82373	450.81516	-14.23586	609.18744	515.40778	-35.90139	567.00928	515.17749	-66.41444	631.48181	529.28784	-82.46375	587.69702	524.07471	-87.31796	519.05249	521.66608	-107.97041	519.06580	410.58719	-66.14133	409.43723	535.94324	-79.20183	365.09079	537.12744	-126.10339	421.37186	543.65424	-130.59660	376.53406	544.87408	-177.64532	107.20635	505.49286	-208.23633	129.34010	415.35867	-139.26199	54.35772	448.02161	-297.42068	88.54567	545.49603	-363.00293	132.20154	483.89807	-336.73163	100.83291	437.48315	188.81532	1007.27960	306.19504	24.37730	988.26233	221.90897	138.61475	634.27875	190.94189	139.19304	590.91919	198.91159	77.23234	628.18341	205.68690	87.34460	586.50897	210.00356	136.22922	503.39136	219.52609	166.80089	494.85403	331.10309	218.91695	401.86163	206.10693	221.84323	356.48096	211.71086	157.17172	391.24600	215.81290	169.64201	345.52524	218.37987	248.03500	97.17873	278.55875	221.50000	108.78165	374.00400	310.36261	62.95691	333.24118	94.29749	51.46357	356.02164	90.24493	64.39561	306.54367	130.71957	42.50959	244.58076
663	5.51667	182.20966	987.59308	391.03656	6.37084	996.06927	451.33231	-20.27885	606.67181	517.13599	-41.70934	564.42059	516.93048	-72.61272	628.62030	530.92926	-88.23580	584.73120	525.79425	-93.00590	515.84845	524.23529	-112.65449	515.22729	412.36499	-76.09000	405.03162	538.67401	-90.51485	361.22318	538.35333	-135.26146	419.05872	545.51978	-141.63002	374.54660	546.54456	-200.93329	107.62930	504.88971	-230.95576	132.25421	415.13297	-165.38326	53.71071	446.61813	-321.25665	94.09000	545.50488	-385.18921	141.35818	484.74261	-360.55710	109.53371	437.79477	180.20746	1005.52716	307.13452	15.90496	986.81348	222.58780	133.72932	633.88062	190.91660	134.74324	590.47461	198.85301	72.41763	627.12213	205.62173	82.90517	585.51532	209.89110	132.83730	502.79077	219.35304	163.46585	494.50922	331.13422	216.56374	401.93365	206.11972	219.85698	356.56589	211.68793	155.04765	391.00107	215.59103	166.64708	344.70508	218.77214	247.98509	97.22700	278.59436	221.39078	108.74050	374.00668	310.27997	62.95942	333.27539	94.31401	51.39230	356.05353	90.25870	64.22180	306.50266	130.73068	42.40732	244.50156
